<?xml version="1.0" encoding="iso-8859-1"?>
<!-- Generator: Adobe Illustrator 19.0.0, SVG Export Plug-In . SVG Version: 6.00 Build 0)  -->
<svg version="1.1" id="Capa_1" xmlns="http://www.w3.org/2000/svg" xmlns:xlink="http://www.w3.org/1999/xlink" x="0px" y="0px"
	 viewBox="0 0 482.749 482.749" style="enable-background:new 0 0 482.749 482.749;" xml:space="preserve">
<g>
	<g>
		<path d="M140.927,309.333c-4.016,0-7.936,0.84-11.552,2.456c-3.616-1.616-7.536-2.456-11.552-2.456
			c-15.688,0-28.448,12.76-28.448,28.448c0,8.36,3.696,22.384,28.448,22.384c4.408,0,8.216-0.416,11.552-1.272
			c3.336,0.856,7.144,1.272,11.552,1.272c24.752,0,28.448-14.024,28.448-22.384C169.375,322.093,156.615,309.333,140.927,309.333z
			 M140.927,344.165c-3.72,0-6.696-0.392-8.856-1.16c-0.864-0.312-1.784-0.472-2.688-0.472s-1.824,0.16-2.688,0.472
			c-2.16,0.768-5.144,1.16-8.856,1.16c-12.464,0-12.464-3.84-12.464-6.384c0-6.864,5.584-12.448,12.448-12.448
			c2.512,0,4.944,0.752,7.024,2.184c2.728,1.872,6.328,1.872,9.056,0c2.08-1.432,4.512-2.184,7.024-2.184
			c6.864,0,12.448,5.584,12.448,12.448C153.375,340.325,153.375,344.165,140.927,344.165z"/>
	</g>
</g>
<g>
	<g>
		<path d="M475.295,394.749c3.952-5.872,6.08-12.768,6.08-20c0-16.656-11.424-30.576-26.816-34.664
			c3.72-10.968,3.4-22.648-0.896-32.904c-4.448-10.608-12.56-18.368-22.848-21.856c-1.832-0.624-3.704-1.096-5.608-1.416
			c-2.032-41.528-22.312-73.128-47.832-73.128c-10.664,0-20.384,5.568-28.272,15.016c-14.464-9.816-31.104-15.048-48.424-15.048
			c-29.432,0-57.088,15.328-73.992,40.992c-0.336,0.512-0.456,1.088-0.656,1.64c-23.872-21.456-55.328-34.632-89.872-34.632
			c-74.32,0-134.784,60.464-134.784,134.784c0,38.488,16.272,65.56,48.288,81.216H9.375c-4.416,0-8,3.584-8,8v16
			c0,13.232,10.888,24,24.28,24h431.44c13.392,0,24.28-10.768,24.28-24v-16c0-3.832-2.744-6.88-6.336-7.664
			c3.984-5.792,6.336-12.792,6.336-20.336C481.375,407.517,479.247,400.621,475.295,394.749z M345.375,290.765
			c0-37.704,16.864-63.984,32-63.984s32,26.296,31.984,64.664c0,2.2,0.904,4.304,2.496,5.816c1.6,1.512,3.768,2.304,5.944,2.176
			c2.752-0.16,5.368,0.2,7.864,1.048c5.888,2,10.592,6.576,13.232,12.888c2.792,6.648,2.968,14.312,0.496,21.576
			c-0.504,1.496-0.408,2.992-0.056,4.416c-15.672,2.664-27.776,15.448-29.568,31.392h-24.392v-20l28.8-21.6
			c3.536-2.648,4.256-7.664,1.6-11.2c-2.648-3.528-7.664-4.264-11.192-1.6l-19.208,14.392v-40c0-4.416-3.576-8-8-8s-8,3.584-8,8v40
			l-19.2-14.4c-3.528-2.664-8.544-1.928-11.192,1.6c-2.656,3.536-1.936,8.552,1.6,11.2l28.8,21.6v20h-8.024
			c-0.08-7.648-3.792-14.848-9.656-19.016l-38.776-31.224c0.968-8.84,5.84-16.144,13.168-19.384
			c3.128-1.376,6.672-1.888,10.552-1.52c2.224,0.224,4.472-0.968,6.136-2.488C344.439,295.605,345.375,293.021,345.375,290.765z
			 M332.015,374.749c-12.712-22.024-36.408-35.744-61.92-35.92c-1.608-14.736-5.68-28.712-11.664-41.64l83.592,67.288
			c2.104,1.496,3.352,3.928,3.352,6.504v7.768v32v1.232c0,3.04-1.76,5.704-4.32,7.056
			C342.815,403.885,339.839,388.301,332.015,374.749z M286.447,391.821l23.48,40.664c-13.872-3.928-25.984-13.008-33.328-25.736
			c-9.152-15.84-9.872-35.264-2.168-51.744c18.128,1.576,34.584,11.904,43.728,27.744c7.352,12.736,9.168,27.768,5.624,41.736
			l-23.48-40.664c-2.216-3.832-7.12-5.144-10.928-2.928C285.543,383.101,284.231,387.997,286.447,391.821z M280.047,434.749h-14.72
			c1.352-3.824,2.376-7.728,3.064-11.688C271.823,427.437,275.759,431.317,280.047,434.749z M300.679,274.749
			c-10.664,0-20.312,5.912-25.784,15.16l-11.416-9.192c8.24-13.752,22.024-21.968,37.2-21.968c11.272,0,21.864,4.568,30.08,12.816
			c-0.568,3.96-1.008,8.016-1.216,12.2c-2.2,0.28-4.312,0.816-6.392,1.472C317.383,278.589,309.247,274.749,300.679,274.749z
			 M309.023,293.693c-4.456,4.272-7.848,9.624-9.92,15.696l-11.448-9.208c2.336-5.64,7.368-9.432,13.024-9.432
			C303.727,290.749,306.599,291.781,309.023,293.693z M360.279,418.749h49.504c0.656,5.856,2.56,11.336,5.688,16h-70.768
			C352.207,432.309,358.023,426.269,360.279,418.749z M361.375,402.749v-16h48v16H361.375z M240.063,260.533
			c13.92-21.152,36.584-33.784,60.616-33.784c14.216,0,27.872,4.344,39.768,12.504c-2.232,4.464-4.192,9.328-5.792,14.576
			c-9.928-7.208-21.648-11.08-33.976-11.08c-19.864,0-38.504,10.656-49.688,27.912l-11.6-9.344
			C239.615,261.053,239.871,260.829,240.063,260.533z M17.375,353.533c0-65.496,53.288-118.784,118.784-118.784
			s118.784,53.288,118.784,118.784c0,1.632,0.608,3.056,1.44,4.32c-0.856,2.824-1.52,5.672-2.024,8.56
			c-4.704-6.008-10.376-11.08-16.632-15.28c0.256-0.784,0.496-1.576,0.496-2.448c0-56.28-45.784-102.064-102.064-102.064
			c-56.28,0-102.064,45.784-102.064,102.064c0,49.232,34.336,74.192,102.064,74.192c22.176,0,40.208-2.504,54.928-7.608
			c4.464,7.576,10.264,14.12,16.968,19.48h-71.896C55.119,434.749,17.375,408.941,17.375,353.533z M214.455,391.821l23.48,40.664
			c-13.872-3.928-25.984-13.008-33.328-25.736c-9.16-15.84-9.88-35.256-2.176-51.744c18.128,1.576,34.584,11.904,43.728,27.744
			c7.352,12.736,9.168,27.768,5.632,41.744l-23.48-40.672c-2.216-3.832-7.096-5.152-10.928-2.928
			C213.551,383.101,212.247,387.997,214.455,391.821z M184.583,400.389c-12.784,4.224-28.888,6.488-48.432,6.488
			c-77.144,0-86.064-33.216-86.064-58.192c0-47.456,38.608-86.064,86.064-86.064c45.584,0,82.904,35.648,85.784,80.512
			c-7.68-2.768-15.832-4.384-24.232-4.384h-0.008c-2.864,0-5.504,1.552-6.936,4.032
			C180.607,360.429,178.639,381.405,184.583,400.389z M465.375,458.749c0,4.408-3.72,8-8.28,8H25.655c-4.568,0-8.28-3.592-8.28-8v-8
			h448V458.749z M459.335,400.469c3.888,3.808,6.04,8.88,6.04,14.28c0,11.024-8.968,20-20,20c-11.032,0-20-8.976-20-20
			c0-5.4,2.152-10.472,6.04-14.28c1.536-1.504,2.408-3.568,2.408-5.72c0-2.152-0.864-4.216-2.408-5.72
			c-3.888-3.808-6.04-8.88-6.04-14.28c0-11.024,8.968-20,20-20c11.032,0,20,8.976,20,20c0,5.4-2.152,10.472-6.04,14.28
			c-1.536,1.504-2.408,3.568-2.408,5.72C456.927,396.901,457.791,398.965,459.335,400.469z"/>
	</g>
</g>
<g>
	<g>
		<path d="M199.703,20.013c-23.72-25.424-63.696-26.808-89.12-3.104c-15,14-23.664,33-24.368,53.504
			c-0.712,20.504,6.6,40.064,20.656,55.128l40.712,42.72c1.576,1.656,3.68,2.488,5.792,2.488c1.984,0,3.968-0.736,5.52-2.208
			c3.2-3.048,3.32-8.112,0.272-11.312l-40.656-42.656c-11.08-11.88-16.872-27.36-16.312-43.6c0.568-16.232,7.416-31.28,19.296-42.36
			c18.984-17.696,48.816-16.656,66.504,2.312c6.568,7.04,10,16.216,9.664,25.832c-0.336,9.616-4.392,18.536-11.44,25.104
			c-10.984,10.248-28.24,9.656-38.496-1.336c-3.016-3.224-8.072-3.408-11.304-0.392c-3.232,3.008-3.408,8.072-0.392,11.304
			c16.256,17.432,43.672,18.384,61.104,2.128c10.176-9.48,16.04-22.352,16.528-36.24C214.143,43.429,209.183,30.181,199.703,20.013z
			"/>
	</g>
</g>
<g>
	<g>
		<path d="M191.031,189.093l-8-8c-3.128-3.128-8.184-3.128-11.312,0s-3.128,8.184,0,11.312l8,8c1.56,1.56,3.608,2.344,5.656,2.344
			c2.048,0,4.096-0.784,5.656-2.344C194.159,197.277,194.159,192.221,191.031,189.093z"/>
	</g>
</g>
<g>
	<g>
		<path d="M350.143,100.197c-0.616-17.792-8.128-34.272-21.144-46.416c-10.728-10.008-24.816-15.304-39.368-14.728
			c-14.664,0.504-28.24,6.696-38.248,17.424c-8.296,8.888-12.632,20.488-12.208,32.64s5.552,23.416,14.456,31.712
			c15.312,14.288,39.44,13.456,53.744-1.872c3.016-3.232,2.832-8.296-0.392-11.304c-3.24-3.016-8.288-2.832-11.312,0.392
			c-8.272,8.872-22.24,9.368-31.136,1.08c-5.768-5.376-9.096-12.68-9.368-20.568c-0.272-7.88,2.536-15.4,7.92-21.168
			c7.088-7.6,16.712-11.984,27.104-12.344c10.344-0.408,20.296,3.336,27.896,10.44c9.888,9.224,15.592,21.752,16.072,35.272
			c0.472,13.512-4.36,26.408-13.52,36.24l-34.696,36.4c-3.048,3.2-2.928,8.264,0.272,11.312c1.544,1.48,3.528,2.208,5.512,2.208
			c2.112,0,4.216-0.832,5.792-2.48l34.76-36.464C344.423,134.957,350.775,117.989,350.143,100.197z"/>
	</g>
</g>
<g>
</g>
<g>
</g>
<g>
</g>
<g>
</g>
<g>
</g>
<g>
</g>
<g>
</g>
<g>
</g>
<g>
</g>
<g>
</g>
<g>
</g>
<g>
</g>
<g>
</g>
<g>
</g>
<g>
</g>
</svg>
