<svg height="480pt" viewBox="0 0 480 480" width="480pt" xmlns="http://www.w3.org/2000/svg"><path d="m120 368h-104v-80h16v56c0 4.417969 3.582031 8 8 8s8-3.582031 8-8v-64c0-4.417969-3.582031-8-8-8h-32c-4.417969 0-8 3.582031-8 8v192c0 4.417969 3.582031 8 8 8s8-3.582031 8-8v-56h96v56c0 4.417969 3.582031 8 8 8s8-3.582031 8-8v-96c0-4.417969-3.582031-8-8-8zm-104 16h96v16h-96zm0 0"/><path d="m281.199219 432 10.160156-71.039062c.621094-4.417969-2.460937-8.503907-6.878906-9.121094-4.417969-.617188-8.5 2.460937-9.121094 6.878906l-10.320313 73.28125h-50.078124l-13.761719-96h16l6.800781 41.28125c.632812 3.910156 4.035156 6.769531 8 6.71875h16c3.964844.050781 7.367188-2.808594 8-6.71875l6.800781-41.28125h121.199219c4.417969 0 8-3.582031 8-8v-32c0-4.417969-3.582031-8-8-8h-14.558594l6.558594-38.71875c.371094-2.328125-.304688-4.699219-1.839844-6.480469-1.539062-1.800781-3.792968-2.824219-6.160156-2.800781h-8v-19.679688l20.398438-13.679687c2.675781-1.4375 4.308593-4.261719 4.214843-7.296875-.089843-3.035156-1.894531-5.753906-4.652343-7.023438-2.757813-1.265624-5.996094-.863281-8.359376 1.039063l-24 16c-2.238281 1.472656-3.585937 3.964844-3.601562 6.640625v24h-24c-2.339844 0-4.558594 1.023438-6.078125 2.800781-1.539063 1.78125-2.210937 4.152344-1.84375 6.480469l6.480469 38.71875h-46.558594v-8c5.234375-6.902344 8.046875-15.335938 8-24 0-12.589844-5.929688-24.445312-16-32v-8.800781c18.625-3.800781 32.003906-20.1875 32-39.199219 0-4.417969-3.582031-8-8-8h-24c-1.988281.011719-3.972656.226562-5.921875.640625 0-1.039063 0-2 0-2.960937.007813-8.488282-3.359375-16.632813-9.359375-22.640626l-16.71875-16.960937c-1.496094-1.523437-3.542969-2.390625-5.679688-2.398437-2.109374.03125-4.125.894531-5.601562 2.398437-10.9375 11.007813-14.523438 27.347656-9.199219 41.921875h-19.519531c-4.417969 0-8 3.582031-8 8-.003906 19.011719 13.375 35.398438 32 39.199219v8.800781c-10.070312 7.554688-16 19.410156-16 32-.046875 8.664062 2.765625 17.097656 8 24v8h-46.558594l6.558594-38.71875c.371094-2.328125-.304688-4.699219-1.839844-6.480469-1.539062-1.800781-3.792968-2.824219-6.160156-2.800781h-24v-24c-.015625-2.675781-1.363281-5.167969-3.601562-6.640625l-24-16c-3.636719-1.953125-8.167969-.8125-10.449219 2.632813-2.28125 3.441406-1.566407 8.054687 1.652343 10.648437l20.398438 13.679687v19.679688h-8c-2.339844 0-4.558594 1.023438-6.078125 2.800781-1.539063 1.78125-2.210937 4.152344-1.84375 6.480469l6.480469 38.71875h-14.558594c-4.417969 0-8 3.582031-8 8v32c0 4.417969 3.582031 8 8 8h89.039062l13.761719 96c-21.621093.648438-38.808593 18.367188-38.800781 40 0 4.417969 3.582031 8 8 8h72c4.417969 0 8-3.582031 8-8s-3.582031-8-8-8h-62.640625c3.390625-9.59375 12.464844-16.003906 22.640625-16h80c10.175781-.003906 19.25 6.40625 22.640625 16h-30.640625c-4.417969 0-8 3.582031-8 8s3.582031 8 8 8h40c4.417969 0 8-3.582031 8-8 .007812-21.632812-17.179688-39.351562-38.800781-40zm-40-64h-2.398438l-5.359375-32h13.117188zm88-112h29.121093l-5.359374 32h-18.402344zm-50.800781-72c-3.359376 9.511719-12.3125 15.902344-22.398438 16h-8c0-8.835938 7.164062-16 16-16zm-51.359376-40 10.402344 10.320312c2.992188 3.019532 4.664063 7.105469 4.636719 11.359376-.015625 4.121093-1.621094 8.074218-4.476563 11.039062l-2.320312-1.917969-3.28125-3.519531c-7.1875-7.179688-9.078125-18.105469-4.71875-27.28125zm-25.917968 40h14.878906c3.066406.007812 6.066406.898438 8.640625 2.558594l4.800781 4.800781c1.660156 2.574219 2.550782 5.574219 2.558594 8.640625h-8c-10.175781.003906-19.25-6.40625-22.640625-16zm20.640625 88c-4.636719-5.386719-6.644531-12.550781-5.484375-19.5625 1.15625-7.007812 5.363281-13.148438 11.484375-16.757812 2.484375-1.433594 4.007812-4.089844 4-6.960938v-12.71875h16v12.398438c-.011719 2.871093 1.511719 5.527343 4 6.960937 6.261719 3.558594 10.597656 9.738281 11.804687 16.839844 1.210938 7.101562-.832031 14.371093-5.566406 19.800781-1.285156 1.457031-1.996094 3.335938-2 5.28125v10.71875h-32v-11.039062c-.078125-1.835938-.785156-3.585938-2-4.960938zm-100.320313-16h29.117188l-5.359375 32h-18.398438zm-17.441406 48h272v16h-272zm0 0"/><path d="m472 312c4.417969 0 8-3.582031 8-8v-24c0-4.417969-3.582031-8-8-8h-32c-4.417969 0-8 3.582031-8 8v88h-72c-4.417969 0-8 3.582031-8 8v96c0 4.417969 3.582031 8 8 8s8-3.582031 8-8v-56h96v56c0 4.417969 3.582031 8 8 8s8-3.582031 8-8v-136c0-4.417969-3.582031-8-8-8s-8 3.582031-8 8v32h-16v-80h16v16c0 4.417969 3.582031 8 8 8zm-8 88h-96v-16h96zm0 0"/><path d="m168 104h144c4.417969 0 8-3.582031 8-8v-16c0-17.671875-14.328125-32-32-32h-8v-8c0-13.253906-10.746094-24-24-24h-8v-8c0-4.417969-3.582031-8-8-8s-8 3.582031-8 8v8h-8c-13.253906 0-24 10.746094-24 24v8h-8c-17.671875 0-32 14.328125-32 32v16c0 4.417969 3.582031 8 8 8zm48-64c0-4.417969 3.582031-8 8-8h32c4.417969 0 8 3.582031 8 8v8h-48zm-40 40c0-8.835938 7.164062-16 16-16h96c8.835938 0 16 7.164062 16 16v8h-128zm0 0"/></svg>